<svg xmlns="http://www.w3.org/2000/svg">
  <style>:root svg:not(:target) {display: none}</style>
<svg viewBox="0 0 27 35" id="copyright__icon">
      <path
        d="M13.65 0.449951H13.55L0.0500031 1.84995V26.55L13.55 34.5499L26.95 26.55V1.84995L13.65 0.449951ZM25.05 12.55L13.55 5.74995V5.64995H13.45L13.35 5.54995V5.64995L1.95 12.55V3.54995L13.45 2.34995L25.05 3.54995V12.55ZM13.45 7.24995L24.95 13.95L20.45 16.55L13.35 12.35V13.75L19.25 17.25L18.35 17.75L13.35 14.75V16.15L17.15 18.45L16.35 18.95L13.35 17.15V18.55L15.25 19.65L13.45 20.75L2.05 14.05L13.45 7.24995ZM1.95 15.55L13.35 22.35V23.35L5.45 18.65V20.05L13.45 24.85V25.95L5.45 21.25V22.65L13.45 27.45L21.55 22.55V17.35L24.95 15.35V25.35L13.45 32.25L1.95 25.45V15.55Z"
        fill="black" />
</svg>

<svg viewBox="0 0 40 40" id="icon-burger">
      <path d="M37.7428 25.8505H2.25722C0.997375 25.8505 0 26.8635 0 28.0285V29.8014C0 30.9664 0.997375 31.9288 2.25722 31.9288H2.78215V32.4354C2.78215 35.2213 5.14436 37.45 7.979 37.45H32.021C34.9081 37.45 37.2178 35.1706 37.2178 32.4354V31.9288H37.7428C38.9501 31.9288 40 30.9664 40 29.7508V27.9779C40 26.8635 39.0026 25.8505 37.7428 25.8505ZM35.6955 32.4354C35.6955 34.3602 34.0682 35.9304 32.0735 35.9304H7.92651C5.93176 35.9304 4.30446 34.3602 4.30446 32.4354V31.9288H35.6955V32.4354ZM38.4252 29.7508C38.4252 30.1053 38.1102 30.4092 37.7428 30.4092H2.25722C1.88976 30.4092 1.5748 30.1053 1.5748 29.7508V27.9779C1.5748 27.674 1.88976 27.3701 2.25722 27.3701H37.7953C38.1627 27.3701 38.4777 27.674 38.4777 28.0285V29.7508H38.4252Z" fill="#81B3D2"/>
      <path d="M8.50395 21.7473L11.3386 23.7735L14.2257 21.7473L17.1129 23.7735L20 21.7473L22.8347 23.7735L25.7218 21.7473L28.6089 23.7735L31.4961 21.7473L34.3832 23.7735L37.6903 21.3928L36.7979 20.1771L34.3832 21.8486L31.4961 19.8225L28.6089 21.8486L25.7218 19.8225L22.8347 21.8486L20 19.8225L17.1129 21.8486L14.2257 19.8225L11.3386 21.8486L8.50395 19.8225L5.61682 21.8486L3.20212 20.1771L2.25723 21.3928L5.61682 23.7735L8.50395 21.7473Z" fill="#81B3D2"/>
      <path d="M37.2179 18.3032C37.2179 17.9993 37.2704 16.9862 37.2179 16.7836C36.8504 8.88169 29.2913 2.55005 20 2.55005C10.7087 2.55005 3.09712 8.88169 2.72967 16.7836C2.72967 16.9862 2.72967 17.9993 2.72967 18.3032H37.2179ZM20 4.06964C28.399 4.06964 35.3281 9.74279 35.6431 16.7836H4.30447C4.67193 9.74279 11.6011 4.06964 20 4.06964Z" fill="#81B3D2"/>
      <path d="M20 11.1611C20.5798 11.1611 21.0499 10.7076 21.0499 10.1481C21.0499 9.58857 20.5798 9.13501 20 9.13501C19.4202 9.13501 18.9501 9.58857 18.9501 10.1481C18.9501 10.7076 19.4202 11.1611 20 11.1611Z" fill="#81B3D2"/>
      <path d="M15.8005 8.67871C16.3803 8.67871 16.8504 8.22515 16.8504 7.66565C16.8504 7.10615 16.3803 6.65259 15.8005 6.65259C15.2207 6.65259 14.7506 7.10615 14.7506 7.66565C14.7506 8.22515 15.2207 8.67871 15.8005 8.67871Z" fill="#81B3D2"/>
      <path d="M24.1995 8.67871C24.7793 8.67871 25.2493 8.22515 25.2493 7.66565C25.2493 7.10615 24.7793 6.65259 24.1995 6.65259C23.6196 6.65259 23.1496 7.10615 23.1496 7.66565C23.1496 8.22515 23.6196 8.67871 24.1995 8.67871Z" fill="#81B3D2"/>
</svg>

<svg viewBox="0 0 40 40" id="icon-gift">
      <path d="M34.5778 12.2058H34.527H22.1841C29.0921 8.76156 29.6508 6.58358 29.3968 5.36796C28.8381 3.39259 26.5524 1.87307 24.419 2.68348C21.6254 3.74714 20.8635 7.9005 20.1016 10.8889C19.1365 7.84985 18.2222 4.0004 16.0381 2.02502C15.4286 1.46786 14.5143 0.910706 13.1429 1.01201C11.1111 1.21461 8.21587 3.69649 9.43492 6.48228C10.5524 9.16676 14.2603 10.8889 16.7492 12.2565H5.42222C4.60952 12.2565 4 12.9149 4 13.6747V19.3475C4 20.158 4.66032 20.7658 5.42222 20.7658H5.5746V39H34.527V20.7658H34.5778C35.3905 20.7658 36 20.1073 36 19.3475V13.6747C36 12.8643 35.3397 12.2058 34.5778 12.2058ZM25.2317 3.94975C26.2984 3.79779 27.7206 4.6082 27.873 5.57057C28.0762 6.93813 26.1968 8.2044 25.3333 8.76156C24.0635 9.62262 22.8444 10.0785 21.6762 10.7876C22.0825 8.91351 22.946 4.25365 25.2317 3.94975ZM13.7524 8.91351C12.6349 8.15375 10.5016 6.68488 10.5524 5.01341C10.6032 3.18999 13.4476 1.72112 14.9714 3.08868C16.9016 4.76016 17.8159 8.66026 18.527 11.3954C16.9016 10.585 15.3778 9.97717 13.7524 8.91351ZM16.7492 37.4805H7.04762V20.7658H16.7492V37.4805ZM16.7492 19.2462H5.52381V13.7253H16.7492V19.2462ZM21.8286 37.4805H18.2222V13.7253H21.8286V37.4805ZM33.0032 37.4805H23.3524V20.7658H33.054V37.4805H33.0032ZM34.4762 19.2462H23.3524V13.7253H34.4762V19.2462Z" fill="#81B3D2"/>
</svg>

<svg viewBox="0 0 40 40" id="icon-house">
      <path d="M15.9015 34.8041H24.2549V22.646H15.9015V34.8041ZM22.7408 33.3289H17.4155V24.1212H22.6886V33.3289H22.7408Z" fill="#81B3D2"/>
      <path d="M38.4036 21.6278L39.5 20.5595L34.3313 15.5233V1.7882H27.1265V8.50314L19.9739 1.58472L0.5 20.6104L1.59639 21.6787L5.66867 17.7108V36.9399H3.63253V38.4152H36.994V36.9399H34.3313V17.6599L38.4036 21.6278ZM28.6406 3.31432H32.7651V14.0481L28.6406 10.0293V3.31432ZM32.8173 36.889H7.23494V16.1846L19.9739 3.72129L32.7651 16.1846V36.889H32.8173Z" fill="#81B3D2"/>
      <path d="M16.0582 15.4216C16.0582 17.609 17.8855 19.3895 20.0783 19.3895C22.3233 19.3895 24.1506 17.609 24.1506 15.4216C24.1506 13.2341 22.3233 11.5045 20.0783 11.5045C17.8333 11.5045 16.0582 13.2341 16.0582 15.4216ZM20.0783 12.878C21.4879 12.878 22.6888 13.9972 22.6888 15.4216C22.6888 16.7951 21.5402 17.9651 20.0783 17.9651C18.6687 17.9651 17.4679 16.846 17.4679 15.4216C17.4679 14.0481 18.6687 12.878 20.0783 12.878Z" fill="#81B3D2"/>
      <path d="M10.8895 22.646H9.32324V24.63H10.8895V22.646Z" fill="#81B3D2"/>
      <path d="M13.9698 22.646H12.4036V24.63H13.9698V22.646Z" fill="#81B3D2"/>
      <path d="M10.8895 25.6975H9.32324V27.6815H10.8895V25.6975Z" fill="#81B3D2"/>
      <path d="M13.9698 25.6975H12.4036V27.6815H13.9698V25.6975Z" fill="#81B3D2"/>
      <path d="M27.5443 22.646H25.978V24.63H27.5443V22.646Z" fill="#81B3D2"/>
      <path d="M30.6769 22.646H29.1106V24.63H30.6769V22.646Z" fill="#81B3D2"/>
      <path d="M27.5443 25.6975H25.978V27.6815H27.5443V25.6975Z" fill="#81B3D2"/>
      <path d="M30.6769 25.6975H29.1106V27.6815H30.6769V25.6975Z" fill="#81B3D2"/>
</svg>

<svg viewBox="0 0 22 18" id="icon-tg">
      <path d="M21.4393 1.62225L18.2705 16.566C18.0313 17.6205 17.408 17.883 16.5223 17.3865L11.6938 13.8285L9.36425 16.0695C9.10626 16.3275 8.891 16.5428 8.39375 16.5428L8.741 11.6258L17.6893 3.54C18.0785 3.1935 17.6045 3.00075 17.0848 3.348L6.02225 10.314L1.25976 8.823C0.224006 8.49975 0.205256 7.78725 1.47576 7.29L20.1035 0.113253C20.966 -0.209997 21.7205 0.305253 21.4393 1.623V1.62225Z" fill="white"/>
</svg>

<svg viewBox="0 0 24 14" id="icon-vk">
      <path fill-rule="evenodd" clip-rule="evenodd" d="M23.45 0.948C23.616 0.402 23.45 0 22.655 0H20.03C19.362 0 19.054 0.347 18.887 0.73C18.887 0.73 17.552 3.926 15.661 6.002C15.049 6.604 14.771 6.795 14.437 6.795C14.27 6.795 14.019 6.604 14.019 6.057V0.948C14.019 0.292 13.835 0 13.279 0H9.151C8.734 0 8.483 0.304 8.483 0.593C8.483 1.214 9.429 1.358 9.526 3.106V6.904C9.526 7.737 9.373 7.888 9.039 7.888C8.149 7.888 5.984 4.677 4.699 1.003C4.45 0.288 4.198 0 3.527 0H0.9C0.15 0 0 0.347 0 0.73C0 1.412 0.89 4.8 4.145 9.281C6.315 12.341 9.37 14 12.153 14C13.822 14 14.028 13.632 14.028 12.997V10.684C14.028 9.947 14.186 9.8 14.715 9.8C15.105 9.8 15.772 9.992 17.33 11.467C19.11 13.216 19.403 14 20.405 14H23.03C23.78 14 24.156 13.632 23.94 12.904C23.702 12.18 22.852 11.129 21.725 9.882C21.113 9.172 20.195 8.407 19.916 8.024C19.527 7.533 19.638 7.314 19.916 6.877C19.916 6.877 23.116 2.451 23.449 0.948H23.45Z" fill="white"/>
</svg>

<svg viewBox="0 0 20 14" id="icon-youtube">
      <path d="M17.1813 0H2.81331C1.30618 0 0 1.3 0 2.8V11.1C0 12.7 1.30618 14 2.81331 14H17.1813C18.7889 14 19.9946 12.7 19.9946 11.2V2.8C20.095 1.3 18.7889 0 17.1813 0ZM7.03326 10.4V3.6L13.8656 7L7.03326 10.4Z" fill="white"/>
</svg>

<svg viewBox="0 0 23 21"  id="like-icon">
<path opacity="0.3" d="M12.9636 3.78L12.3364 6.825L11.7091 9.45H14.3227H20.8045V11.55C20.8045 11.55 20.8045 11.55 20.8045 11.655L17.7727 18.9H8.36364V8.4L12.9636 3.78ZM2.09091 10.5V18.9V10.5ZM13.8 0L6.9 6.93C6.48182 7.245 6.27273 7.77 6.27273 8.4V18.9C6.27273 20.055 7.21364 21 8.36364 21H17.7727C18.6091 21 19.3409 20.475 19.6545 19.74L22.7909 12.285C22.8955 12.075 22.8955 11.76 22.8955 11.55V9.45H23C23 8.295 22.0591 7.35 20.9091 7.35H14.3227L15.3682 2.52V2.205C15.3682 1.785 15.1591 1.365 14.95 1.05L13.8 0ZM4.18182 8.4H0V21H4.18182V8.4Z" fill="black"/>
</svg>

<svg viewBox="0 0 23 21" id="like-icon-white">
<path d="M12.9636 3.78L12.3364 6.825L11.7091 9.45H14.3227H20.8045V11.55C20.8045 11.55 20.8045 11.55 20.8045 11.655L17.7727 18.9H8.36364V8.4L12.9636 3.78ZM2.09091 10.5V18.9V10.5ZM13.8 0L6.9 6.93C6.48182 7.245 6.27273 7.77 6.27273 8.4V18.9C6.27273 20.055 7.21364 21 8.36364 21H17.7727C18.6091 21 19.3409 20.475 19.6545 19.74L22.7909 12.285C22.8955 12.075 22.8955 11.76 22.8955 11.55V9.45H23C23 8.295 22.0591 7.35 20.9091 7.35H14.3227L15.3682 2.52V2.205C15.3682 1.785 15.1591 1.365 14.95 1.05L13.8 0ZM4.18182 8.4H0V21H4.18182V8.4Z" fill="white"/>
</svg>

<svg viewBox="0 0 22 16" id="tick-icon">
<path d="M21.8053 1.30662L20.759 0.22188C20.4736 -0.0739599 19.9029 -0.0739599 19.6176 0.22188L8.29884 11.9569L2.40167 5.84283C2.11633 5.54699 1.54563 5.54699 1.26028 5.84283L0.21401 6.92758C-0.0713367 7.22342 -0.0713367 7.8151 0.21401 8.11094L7.63303 15.8028C7.82326 16 8.01349 16 8.20373 16C8.39396 16 8.58419 15.9014 8.77442 15.8028L21.615 2.48999C22.0906 2.19415 22.0906 1.70108 21.8053 1.30662Z" fill="#333333"/>
</svg>

</svg>
